<?xml version="1.0" encoding="utf-8"?>
<!-- Generator: Adobe Illustrator 23.0.3, SVG Export Plug-In . SVG Version: 6.00 Build 0)  -->
<svg version="1.1" id="Layer_1" xmlns="http://www.w3.org/2000/svg" xmlns:xlink="http://www.w3.org/1999/xlink" x="0px" y="0px"
	 viewBox="0 0 146.24 200.88" style="enable-background:new 0 0 146.24 200.88;" xml:space="preserve">

<rect x="895.55" y="92.15" transform="matrix(-1.836970e-16 1 -1 -1.836970e-16 1283.442 -848.5526)" class="st0" width="340.9" height="250.58"/>
<path class="st1" d="M135.49,111.38V54.33c0-5.32-2.81-10.24-7.38-12.95L80.52,13.2c-4.73-2.8-10.61-2.8-15.34,0L17.59,41.38
	c-4.58,2.71-7.38,7.63-7.38,12.95v57.04c0,5.32,2.81,10.24,7.38,12.95l47.62,28.2c4.71,2.79,10.57,2.79,15.28,0l47.62-28.2
	C132.68,121.62,135.49,116.69,135.49,111.38z" fill="#007dbc"/>
<g>
	<path class="st0" d="M87.85,105.67c0.11-0.01-0.98,1.11-1.57,1.75l-0.63,0.7c-2.48,2.89-4.19,6.49-4.78,10.53
		c-0.44,3.05-0.2,6.04,0.62,8.81l0,0c0.25,0.84,0.54,1.66,0.89,2.45c0.76-2.95,2.15-5.62,3.99-7.87c0.06-0.07,0.12-0.15,0.18-0.22
		c0.3-0.36,0.61-0.71,0.94-1.05l4.91-5.47c-0.11,0.01,0.97-1.12,1.57-1.75l0.63-0.7c2.47-2.89,4.18-6.49,4.76-10.54
		c0.43-3.02,0.19-5.99-0.61-8.74L87.85,105.67z" fill="#ffffff"/>
	<path class="st0" d="M100.71,59.93c-0.25-0.84-0.55-1.66-0.89-2.45c-0.76,2.96-2.14,5.62-3.97,7.88
		c-12.29,13.69-23.9,26.58-23.9,26.58l-1.97,2.2l-0.05,0.06c-2.27,2.81-4.03,6.05-5.13,9.58c-0.26,0.82-0.48,1.66-0.66,2.51
		c-0.09,0.4-0.17,0.81-0.24,1.22c-0.53,4.7-0.02,8.68,0.55,11.19c-1.72-0.94-3.35-2.06-4.87-3.36v0c-0.57-0.49-1.13-1-1.67-1.54
		c-5.4-5.4-8.37-12.58-8.37-20.21c0-3.63,0.67-7.16,1.96-10.44c0.39-0.99,0.83-1.96,1.33-2.9c0.45-0.84,2.72-4.34,2.72-4.34
		l2.35-3.52l10.7-16.04l1.31-1.96l0.52-0.78c0.02-0.03,0.04-0.06,0.05-0.09l0.02-0.02c0.03-0.05,0.06-0.1,0.09-0.16
		c0.08-0.14,0.17-0.28,0.25-0.42c0.04-0.06,0.07-0.13,0.11-0.19c0.08-0.14,0.16-0.28,0.24-0.43c0.03-0.07,0.07-0.13,0.1-0.2
		c0.08-0.14,0.15-0.29,0.22-0.43c0.03-0.07,0.06-0.14,0.1-0.2c0.07-0.15,0.14-0.29,0.21-0.44c0.03-0.07,0.06-0.14,0.09-0.21
		c0.06-0.15,0.13-0.29,0.19-0.44c0.03-0.07,0.06-0.15,0.09-0.23c0.06-0.15,0.12-0.29,0.17-0.44c0.03-0.08,0.06-0.16,0.08-0.24
		c0.05-0.15,0.1-0.29,0.15-0.44c0.03-0.08,0.05-0.17,0.08-0.26c0.05-0.14,0.09-0.29,0.13-0.43c0.03-0.09,0.05-0.18,0.08-0.28
		c0.04-0.14,0.08-0.28,0.12-0.42c0.02-0.1,0.05-0.2,0.07-0.29c0.03-0.14,0.07-0.27,0.1-0.41c0.02-0.11,0.04-0.21,0.06-0.32
		c0.03-0.13,0.05-0.26,0.08-0.4c0.02-0.12,0.04-0.23,0.06-0.35c0.02-0.12,0.04-0.25,0.06-0.37c0.02-0.13,0.03-0.26,0.05-0.39
		c0.01-0.12,0.03-0.23,0.04-0.35c0.02-0.14,0.03-0.29,0.04-0.43c0.01-0.1,0.02-0.21,0.03-0.31c0.01-0.17,0.02-0.35,0.03-0.53
		c0-0.07,0.01-0.15,0.01-0.22c0.01-0.25,0.01-0.5,0.01-0.76c0-3.08-0.81-6-2.01-8.63c-0.08-0.17-0.8-1.57-1.06-2.02
		c-0.06-0.09-0.11-0.19-0.17-0.28c-0.04,0.38-0.09,0.76-0.16,1.13c-0.03,0.19-0.06,0.37-0.1,0.56c-0.04,0.22-0.09,0.44-0.14,0.66
		c-0.49,2.16-1.18,4.18-2.28,6.03c-0.14,0.23-0.28,0.45-0.43,0.68c-0.12,0.18-0.24,0.36-0.36,0.53c-0.11,0.16-0.22,0.32-0.34,0.48
		l-0.9,1.35L52.15,63.26l-3,4.5l-2.6,3.9l-0.52,0.78l-0.36,0.54c-0.57,0.89-1.1,1.81-1.59,2.75c-0.49,0.94-0.95,1.9-1.37,2.89
		c-2.01,4.74-3.02,9.77-3.02,14.96c0,0.46,0.01,0.91,0.02,1.37c0.03,0.93,0.1,1.85,0.2,2.77c0.05,0.46,0.11,0.91,0.17,1.36
		c0.46,3.25,1.34,6.41,2.63,9.46c0.85,2,1.85,3.91,3.01,5.73c0.17,0.26,0.33,0.52,0.51,0.77c1.38,2.04,2.95,3.95,4.71,5.71
		c0.29,0.29,0.59,0.58,0.9,0.87c0.1,0.09,0.2,0.18,0.29,0.27c0.21,0.19,0.42,0.38,0.63,0.57c0.12,0.1,0.23,0.2,0.35,0.3
		c0.22,0.18,0.43,0.37,0.65,0.55c0.11,0.09,0.21,0.17,0.31,0.26c0.3,0.24,0.6,0.47,0.9,0.7c0.15,0.12,0.31,0.23,0.47,0.34
		c0.17,0.12,0.34,0.24,0.51,0.36c0.18,0.12,0.35,0.25,0.53,0.37c0.15,0.1,0.31,0.21,0.46,0.31c0.19,0.12,0.37,0.25,0.56,0.37
		c0.01,0,0.01,0.01,0.02,0.01c0.26,0.18,0.53,0.34,0.81,0.5c0.02,0.01,0.04,0.03,0.07,0.04c0.1,0.06,0.19,0.11,0.29,0.17
		c0.29,0.17,0.58,0.33,0.87,0.5c0,0,0,0,0,0c0.05,0.03,0.1,0.06,0.16,0.09l0,0c0.11,0.06,0.23,0.12,0.35,0.18
		c0.45,0.24,0.9,0.47,1.35,0.69c0.04,0.02,0.07,0.03,0.11,0.05c0.54,0.26,1.09,0.51,1.65,0.74c0.02,0.01,0.05,0.02,0.07,0.03
		c2.3,0.97,4.67,1.7,7.09,2.2c0,0,0,0,0,0l0,0c0,0,0,0,0,0c0.22,0.05,0.45,0.09,0.67,0.13l0,0l0,0c-1.34-3.38-2.01-6.99-1.97-10.66
		c0-0.01,0-0.02,0-0.03c0-0.06,0-0.12,0-0.18c0.02-1.21,0.11-2.43,0.29-3.65c0.02-0.16,0.05-0.32,0.07-0.49
		c0.88-5.46,3.26-10.45,6.88-14.48c0.02-0.02,0.04-0.04,0.06-0.07l11.08-12.37l5.44-6.07l0.61-0.68c0.8-0.94,0.97-1.12,1.57-1.75
		l0.63-0.7c2.47-2.89,5.13-7.45,5.71-11.49C101.78,65.69,101.53,62.7,100.71,59.93z" fill="#ffffff"/>
	<path class="st0" d="M91.03,65.63c0,0-1.68-1.86-2.81-3.79c-1.11-1.91-1.77-4.57-1.77-4.59c0,0-0.14-0.35-0.41-0.42
		c-0.46-0.18-0.73,0.23-0.87,0.46c-1.47,2.48-5.25,8.75-8.58,13.45c-3.13,4.4-6.71,9.01-9.16,12.1c-0.31,0.39-2.44,3.04-2.44,3.04
		l-0.01,0.02c-3.8,5.09-5.95,11.16-6.21,17.53c-0.14,3.43,2.05,9.86,2.05,9.86c-0.66-3.44-0.89-6.51-0.76-9.8
		c0.25-6.11,2.31-11.92,5.95-16.8c0.14-0.17,2.13-2.66,2.44-3.04c2.46-3.1,6.1-8.19,9.24-12.61c2.97-4.18,6.27-9.58,8.02-12.51
		c0.29,0.82,0.76,2.16,1.46,3.29C88.36,63.75,91.02,65.64,91.03,65.63L91.03,65.63z" fill="#ffffff"/>
	<path class="st0" d="M82.75,59.37c-0.41-0.75-1.33-2.49-1.87-3.73c-0.85-1.93-1.2-3.24-1.21-3.26c0,0-0.16-0.34-0.43-0.4
		c-0.47-0.15-0.72,0.27-0.85,0.51c-1.34,2.55-4.77,9.02-7.85,13.88c-2.89,4.56-6.22,9.36-8.51,12.57c-0.29,0.41-2.27,3.17-2.27,3.17
		l-0.01,0.02c-3.52,5.29-4.98,11.09-4.9,17.47c0.04,3.43,2.2,9.55,2.2,9.55c-0.84-3.4-1.23-5.9-1.27-9.2
		c-0.07-6.11,1.67-12.02,5.05-17.09c0.13-0.18,1.99-2.77,2.27-3.16c2.3-3.23,5.46-8.41,8.36-13c2.74-4.33,5.94-10.27,7.53-13.28
		c0.33,0.81,0.67,1.5,1.24,2.7C81.14,58.03,82.75,59.37,82.75,59.37z" fill="#ffffff"/>
</g>
<g>
	<g>
		<path class="st1" d="M31.34,180.19V165.7h6.77v14.53c0,2.21,1.4,3.61,3.61,3.61c2.21,0,3.61-1.4,3.61-3.61V165.7h6.77v14.49
			c0,5.75-3.67,9.77-10.38,9.77S31.34,185.94,31.34,180.19z" fill="#ffffff"/>
		<path class="st1" d="M56.04,165.7h9.29c5.07,0,8.03,3.13,8.03,7.93c0,4.7-3.13,8-7.93,8h-2.62v7.89h-6.77V165.7z M64.24,175.94
			c1.43,0,2.18-0.99,2.18-2.35c0-1.29-0.82-2.21-2.11-2.21h-1.5v4.56H64.24z" fill="#ffffff"/>
		<path class="st1" d="M75.91,165.7h6.77v17.9h6.84v5.92H75.91V165.7z" fill="#ffffff"/>
		<path class="st1" d="M98.94,184.95l-1.43,4.56h-6.81l8.23-23.82h7.15l8.23,23.82h-6.81l-1.43-4.56H98.94z M102.51,172.7
			l-1.97,6.84h3.95L102.51,172.7z" fill="#ffffff"/>
	</g>
	<g>
		<path class="st1" d="M31.34,194.16v-2.14h1v2.15c0,0.33,0.21,0.53,0.53,0.53c0.33,0,0.53-0.21,0.53-0.53v-2.15h1v2.14
			c0,0.85-0.54,1.44-1.53,1.44C31.88,195.6,31.34,195.01,31.34,194.16z" fill="#ffffff"/>
		<path class="st1" d="M34.98,192.02H36l1.13,2v-2h0.99v3.52h-1l-1.16-1.97v1.97h-0.98V192.02z" fill="#ffffff"/>
		<path class="st1" d="M38.7,192.02h1v3.52h-1V192.02z" fill="#ffffff"/>
		<path class="st1" d="M41.29,195.53l-1.28-3.52h1.1l0.73,2.36l0.72-2.36h1.1l-1.28,3.52H41.29z" fill="#ffffff"/>
		<path class="st1" d="M43.97,192.02h1.97v0.87h-0.97v0.43h0.82v0.87h-0.82v0.47h1.01v0.87h-2.01V192.02z" fill="#ffffff"/>
		<path class="st1" d="M46.47,192.02h1.24c0.87,0,1.29,0.42,1.29,1.11c0,0.38-0.16,0.74-0.46,0.93l0.8,1.48h-1.1l-0.59-1.24h-0.18
			v1.24h-1V192.02z M47.64,193.48c0.23,0,0.35-0.14,0.35-0.32c0-0.2-0.12-0.31-0.35-0.31h-0.17v0.62H47.64z" fill="#ffffff"/>
		<path class="st1" d="M50.25,194.33c0.1,0.19,0.3,0.35,0.48,0.35c0.16,0,0.22-0.07,0.22-0.16c0-0.36-1.43-0.37-1.43-1.49
			c0-0.67,0.49-1.09,1.22-1.09c0.81,0,1.11,0.58,1.2,0.85l-0.83,0.37c-0.07-0.15-0.16-0.32-0.4-0.32c-0.12,0-0.19,0.07-0.19,0.16
			c0,0.39,1.44,0.37,1.44,1.43c0,0.67-0.45,1.15-1.26,1.15c-0.83,0-1.2-0.61-1.29-0.85L50.25,194.33z" fill="#ffffff"/>
		<path class="st1" d="M52.39,192.02h1v3.52h-1V192.02z" fill="#ffffff"/>
		<path class="st1" d="M53.97,192.02h1.15c1.13,0,1.88,0.66,1.88,1.76c0,1.09-0.74,1.76-1.88,1.76h-1.15V192.02z M55.1,194.69
			c0.51,0,0.86-0.31,0.86-0.91c0-0.62-0.35-0.91-0.86-0.91h-0.13v1.83H55.1z" fill="#ffffff"/>
		<path class="st1" d="M58.2,194.86l-0.21,0.67h-1.01l1.22-3.52h1.06l1.22,3.52h-1.01l-0.21-0.67H58.2z M58.73,193.05l-0.29,1.01
			h0.58L58.73,193.05z" fill="#ffffff"/>
		<path class="st1" d="M60.79,192.02h1.15c1.13,0,1.88,0.66,1.88,1.76c0,1.09-0.74,1.76-1.88,1.76h-1.15V192.02z M61.91,194.69
			c0.51,0,0.86-0.31,0.86-0.91c0-0.62-0.35-0.91-0.86-0.91h-0.13v1.83H61.91z" fill="#ffffff"/>
		<path class="st1" d="M65.23,192.02h1.37c0.75,0,1.19,0.46,1.19,1.17c0,0.69-0.46,1.18-1.17,1.18h-0.39v1.17h-1V192.02z
			 M66.44,193.53c0.21,0,0.32-0.15,0.32-0.35c0-0.19-0.12-0.33-0.31-0.33h-0.22v0.67H66.44z" fill="#ffffff"/>
		<path class="st1" d="M68.16,192.02h1.97v0.87h-0.97v0.43h0.82v0.87h-0.82v0.47h1.01v0.87h-2.01V192.02z" fill="#ffffff"/>
		<path class="st1" d="M70.67,192.02h1.24c0.87,0,1.29,0.42,1.29,1.11c0,0.38-0.16,0.74-0.46,0.93l0.8,1.48h-1.1l-0.59-1.24h-0.18
			v1.24h-1V192.02z M71.83,193.48c0.23,0,0.35-0.14,0.35-0.32c0-0.2-0.12-0.31-0.35-0.31h-0.17v0.62H71.83z" fill="#ffffff"/>
		<path class="st1" d="M73.64,194.16v-2.14h1v2.15c0,0.33,0.21,0.53,0.53,0.53c0.33,0,0.53-0.21,0.53-0.53v-2.15h1v2.14
			c0,0.85-0.54,1.44-1.53,1.44C74.18,195.6,73.64,195.01,73.64,194.16z" fill="#ffffff"/>
		<path class="st1" d="M77.98,194.86l-0.21,0.67h-1.01l1.22-3.52h1.06l1.22,3.52h-1l-0.21-0.67H77.98z M78.51,193.05l-0.29,1.01
			h0.58L78.51,193.05z" fill="#ffffff"/>
		<path class="st1" d="M80.57,192.02h1.02l1.13,2v-2h0.98v3.52h-1l-1.16-1.97v1.97h-0.98V192.02z" fill="#ffffff"/>
		<path class="st1" d="M85.23,194.86l-0.21,0.67h-1.01l1.22-3.52h1.06l1.22,3.52h-1l-0.21-0.67H85.23z M85.76,193.05l-0.29,1.01
			h0.58L85.76,193.05z" fill="#ffffff"/>
		<path class="st1" d="M88.82,192.02h1v2.64h1.01v0.87h-2.01V192.02z" fill="#ffffff"/>
		<path class="st1" d="M90.9,193.77c0-1.02,0.74-1.82,1.9-1.82c1.16,0,1.9,0.8,1.9,1.82c0,1.03-0.74,1.83-1.9,1.83
			C91.64,195.6,90.9,194.8,90.9,193.77z M91.94,193.77c0,0.53,0.34,0.91,0.85,0.91c0.51,0,0.85-0.39,0.85-0.91
			c0-0.51-0.34-0.9-0.85-0.9C92.28,192.87,91.94,193.26,91.94,193.77z" fill="#ffffff"/>
		<path class="st1" d="M95.71,194.33c0.1,0.19,0.3,0.35,0.48,0.35c0.16,0,0.22-0.07,0.22-0.16c0-0.36-1.43-0.37-1.43-1.49
			c0-0.67,0.49-1.09,1.22-1.09c0.81,0,1.11,0.58,1.2,0.85l-0.83,0.37c-0.07-0.15-0.16-0.32-0.4-0.32c-0.12,0-0.19,0.07-0.19,0.16
			c0,0.39,1.44,0.37,1.44,1.43c0,0.67-0.45,1.15-1.26,1.15c-0.83,0-1.2-0.61-1.29-0.85L95.71,194.33z" fill="#ffffff"/>
		<path class="st1" d="M99.8,194.86l-0.21,0.67h-1.01l1.22-3.52h1.06l1.22,3.52h-1l-0.21-0.67H99.8z M100.32,193.05l-0.29,1.01h0.58
			L100.32,193.05z" fill="#ffffff"/>
		<path class="st1" d="M102.38,192.02h1.02l1.13,2v-2h0.98v3.52h-1l-1.16-1.97v1.97h-0.98V192.02z" fill="#ffffff"/>
		<path class="st1" d="M106.1,192.02h1.15c1.13,0,1.88,0.66,1.88,1.76c0,1.09-0.74,1.76-1.88,1.76h-1.15V192.02z M107.22,194.69
			c0.51,0,0.86-0.31,0.86-0.91c0-0.62-0.35-0.91-0.86-0.91h-0.13v1.83H107.22z" fill="#ffffff"/>
		<path class="st1" d="M109.53,192.02h1.97v0.87h-0.97v0.43h0.82v0.87h-0.82v0.47h1.01v0.87h-2.01V192.02z" fill="#ffffff"/>
		<path class="st1" d="M112.64,194.33c0.1,0.19,0.3,0.35,0.48,0.35c0.16,0,0.22-0.07,0.22-0.16c0-0.36-1.43-0.37-1.43-1.49
			c0-0.67,0.49-1.09,1.22-1.09c0.81,0,1.11,0.58,1.2,0.85l-0.83,0.37c-0.07-0.15-0.16-0.32-0.4-0.32c-0.12,0-0.19,0.07-0.19,0.16
			c0,0.39,1.44,0.37,1.44,1.43c0,0.67-0.45,1.15-1.26,1.15c-0.83,0-1.2-0.61-1.29-0.85L112.64,194.33z" fill="#ffffff"/>
	</g>
</g>
</svg>
