<?xml version="1.0" encoding="iso-8859-1"?>
<!-- Generator: Adobe Illustrator 23.0.4, SVG Export Plug-In . SVG Version: 6.00 Build 0)  -->
<svg version="1.1" xmlns="http://www.w3.org/2000/svg" xmlns:xlink="http://www.w3.org/1999/xlink" x="0px" y="0px"
	 viewBox="0 0 64 64" style="enable-background:new 0 0 64 64;" xml:space="preserve">
<g id="wifi-02">
	<g>
		<g>
			<path style="fill:#354047;" d="M62.417,27.44c-5.399-5.4-12.135-9.27-19.48-11.193l0.567-2.165
				C51.233,16.105,58.32,20.178,64,25.858L62.417,27.44z"/>
		</g>
		<g>
			<path style="fill:#354047;" d="M1.583,27.44L0,25.858c5.699-5.699,12.813-9.779,20.571-11.796l0.563,2.166
				C13.762,18.146,7.001,22.023,1.583,27.44z"/>
		</g>
		<g>
			<path style="fill:#354047;" d="M9.385,35.242l-1.583-1.583c13.342-13.343,35.053-13.342,48.395,0l-1.583,1.583
				C42.145,22.774,21.855,22.772,9.385,35.242z"/>
		</g>
		<g>
			<path style="fill:#354047;" d="M46.813,43.044c-8.168-8.167-21.458-8.167-29.626,0l-1.583-1.583
				c9.041-9.041,23.751-9.041,32.791,0L46.813,43.044z"/>
		</g>
		<g>
			<path style="fill:#354047;" d="M36.222,48.084c-1.119-1.131-2.63-1.757-4.22-1.757c-1.601,0-3.1,0.627-4.231,1.757
				c-2.328,2.328-2.328,6.123,0,8.451c1.131,1.13,2.63,1.746,4.231,1.746c1.589,0,3.1-0.616,4.22-1.746
				C38.561,54.206,38.561,50.412,36.222,48.084z M34.643,54.956c-0.705,0.705-1.668,1.063-2.642,1.063
				c-0.974,0-1.936-0.358-2.642-1.063c-1.466-1.466-1.466-3.839,0-5.294c0.705-0.705,1.645-1.097,2.642-1.097
				c0.996,0,1.936,0.392,2.642,1.097C36.098,51.117,36.098,53.49,34.643,54.956z"/>
		</g>
	</g>
	<g>
		<g>
			<polygon style="fill:#FEBA00;" points="37.78,20.257 32.093,14.571 26.407,20.257 24.825,18.674 30.511,12.988 24.825,7.302 
				26.407,5.72 32.093,11.405 37.78,5.72 39.362,7.302 33.676,12.988 39.362,18.674 			"/>
		</g>
	</g>
</g>
<g id="Layer_1">
</g>
</svg>
