<?xml version="1.0" encoding="iso-8859-1"?>
<!-- Generator: Adobe Illustrator 23.0.4, SVG Export Plug-In . SVG Version: 6.00 Build 0)  -->
<svg version="1.1" xmlns="http://www.w3.org/2000/svg" xmlns:xlink="http://www.w3.org/1999/xlink" x="0px" y="0px"
	 viewBox="0 0 64 64" style="enable-background:new 0 0 64 64;" xml:space="preserve">
<g id="wifi-06">
	<g>
		<g>
			<path style="fill:#FEBA00;" d="M49.297,38.217l-1.993-1.993c9.437-9.437,9.437-24.793,0-34.231L49.297,0
				C59.833,10.536,59.833,27.681,49.297,38.217z"/>
		</g>
		<g>
			<path style="fill:#FEBA00;" d="M44.769,33.689l-1.993-1.993c3.362-3.362,5.214-7.832,5.214-12.587
				c0-4.754-1.852-9.225-5.214-12.587l1.993-1.993c3.895,3.895,6.04,9.073,6.04,14.58C50.809,24.616,48.664,29.795,44.769,33.689z"
				/>
		</g>
		<g>
			<path style="fill:#FEBA00;" d="M40.241,29.161l-1.993-1.993c4.444-4.444,4.444-11.675,0-16.119l1.993-1.993
				C45.784,14.599,45.784,23.618,40.241,29.161z"/>
		</g>
		<g>
			<path style="fill:#FEBA00;" d="M32,23.718c-1.181,0-2.361-0.449-3.26-1.348c-0.871-0.871-1.351-2.029-1.351-3.261
				s0.48-2.39,1.35-3.26l0,0c0.001,0,0.001,0,0.001,0s0,0,0-0.001c1.741-1.741,4.78-1.742,6.521,0.001
				c1.798,1.797,1.798,4.723,0.001,6.521C34.362,23.268,33.181,23.718,32,23.718z M32,17.316c-0.478,0-0.928,0.187-1.266,0.525
				l-0.001,0.001c-0.339,0.338-0.525,0.788-0.525,1.266c0,0.479,0.187,0.929,0.525,1.268c0.699,0.698,1.836,0.699,2.535-0.001
				c0.699-0.699,0.699-1.836,0-2.534C32.929,17.503,32.479,17.316,32,17.316z"/>
		</g>
	</g>
	<g>
		<g>
			<path style="fill:#FEBA00;" d="M14.703,38.217C4.167,27.681,4.167,10.536,14.703,0l1.993,1.993
				c-9.437,9.437-9.437,24.793,0,34.231L14.703,38.217z"/>
		</g>
		<g>
			<path style="fill:#FEBA00;" d="M19.231,33.689c-3.895-3.894-6.04-9.072-6.04-14.58c0-5.507,2.145-10.686,6.04-14.58l1.993,1.993
				c-3.362,3.363-5.214,7.833-5.214,12.587c0,4.755,1.852,9.225,5.214,12.587L19.231,33.689z"/>
		</g>
		<g>
			<path style="fill:#FEBA00;" d="M23.759,29.161c-5.543-5.543-5.543-14.562,0-20.105l1.993,1.993
				c-4.444,4.444-4.444,11.675,0,16.119L23.759,29.161z"/>
		</g>
	</g>
	<g>
		<rect x="30.59" y="29.873" style="fill:#354047;" width="2.819" height="34.127"/>
	</g>
</g>
<g id="Layer_1">
</g>
</svg>
